<?xml version="1.0" encoding="UTF-8"?>
<svg xmlns="http://www.w3.org/2000/svg" xmlns:xlink="http://www.w3.org/1999/xlink" width="595.5pt" height="842.249979pt" viewBox="0 0 595.5 842.249979" version="1.2">
<defs>
<clipPath id="clip1">
  <path d="M 0.015625 0 L 594.984375 0 L 594.984375 841.5 L 0.015625 841.5 Z M 0.015625 0 "/>
</clipPath>
<filter id="alpha" filterUnits="objectBoundingBox" x="0%" y="0%" width="100%" height="100%">
  <feColorMatrix type="matrix" in="SourceGraphic" values="0 0 0 0 1 0 0 0 0 1 0 0 0 0 1 0 0 0 1 0"/>
</filter>
<mask id="mask0">
  <g filter="url(#alpha)">
<rect x="0" y="0" width="595.5" height="842.249979" style="fill:rgb(0%,0%,0%);fill-opacity:0.0471;stroke:none;"/>
  </g>
</mask>
<clipPath id="clip3">
  <path d="M 0.015625 0 L 594.984375 0 L 594.984375 841.5 L 0.015625 841.5 Z M 0.015625 0 "/>
</clipPath>
<clipPath id="clip2">
  <rect x="0" y="0" width="595" height="842"/>
</clipPath>
<g id="surface5" clip-path="url(#clip2)">
<g clip-path="url(#clip3)" clip-rule="nonzero">
<rect x="0" y="0" width="595" height="842" style="fill:rgb(56.858826%,4.708862%,0%);fill-opacity:1;stroke:none;"/>
<rect x="0" y="0" width="595" height="842" style="fill:rgb(56.858826%,4.708862%,0%);fill-opacity:1;stroke:none;"/>
</g>
</g>
<clipPath id="clip4">
  <path d="M 60 214 L 594.984375 214 L 594.984375 841.5 L 60 841.5 Z M 60 214 "/>
</clipPath>
<mask id="mask1">
  <g filter="url(#alpha)">
<rect x="0" y="0" width="595.5" height="842.249979" style="fill:rgb(0%,0%,0%);fill-opacity:0.498;stroke:none;"/>
  </g>
</mask>
<clipPath id="clip6">
  <path d="M 87 61 L 534.984375 61 L 534.984375 627.5 L 87 627.5 Z M 87 61 "/>
</clipPath>
<clipPath id="clip7">
  <path d="M 323.460938 -2.339844 L 747.855469 269.46875 L 424.679688 774.066406 L 0.285156 502.257812 Z M 323.460938 -2.339844 "/>
</clipPath>
<clipPath id="clip8">
  <path d="M 323.460938 -2.339844 L 747.855469 269.46875 L 424.679688 774.066406 L 0.285156 502.257812 Z M 323.460938 -2.339844 "/>
</clipPath>
<clipPath id="clip9">
  <path d="M 129 83 L 534.984375 83 L 534.984375 627.5 L 129 627.5 Z M 129 83 "/>
</clipPath>
<clipPath id="clip10">
  <path d="M 323.460938 -2.339844 L 747.855469 269.46875 L 424.679688 774.066406 L 0.285156 502.257812 Z M 323.460938 -2.339844 "/>
</clipPath>
<clipPath id="clip11">
  <path d="M 323.460938 -2.339844 L 747.855469 269.46875 L 424.679688 774.066406 L 0.285156 502.257812 Z M 323.460938 -2.339844 "/>
</clipPath>
<clipPath id="clip5">
  <rect x="0" y="0" width="535" height="628"/>
</clipPath>
<g id="surface8" clip-path="url(#clip5)">
<g clip-path="url(#clip6)" clip-rule="nonzero">
<g clip-path="url(#clip7)" clip-rule="nonzero">
<g clip-path="url(#clip8)" clip-rule="nonzero">
<path style=" stroke:none;fill-rule:nonzero;fill:rgb(56.858826%,4.708862%,0%);fill-opacity:1;" d="M 486.757812 583.664062 C 483.242188 557.121094 474.148438 541.25 459.4375 536.433594 C 440.449219 530.132812 419.402344 545.339844 409.34375 554.183594 C 407.957031 553.085938 406.269531 551.796875 404.582031 550.507812 C 402.421875 531.324219 401.699219 502.386719 405.734375 460.789062 C 412.949219 390.035156 469.199219 286.195312 488.148438 252.6875 C 489.058594 251.59375 489.871094 250.648438 490.78125 249.554688 C 501.996094 261.136719 516.867188 274.847656 532.75 285.019531 C 544.328125 292.4375 556.65625 298.027344 568.46875 299.523438 C 656.996094 310.992188 688.238281 275.9375 689.582031 274.496094 L 693.027344 270.421875 L 690.691406 265.574219 C 682.425781 249.390625 671.691406 234.769531 658.601562 222.199219 C 630.023438 194.261719 595.367188 181.699219 558.078125 185.664062 C 530.011719 188.628906 508.378906 192.988281 493.367188 198.449219 C 490.234375 171.316406 482.765625 137.21875 464.917969 118.671875 C 403.105469 54.375 356.789062 61.980469 354.839844 62.40625 L 349.578125 63.433594 L 348.304688 68.691406 C 344.667969 86.460938 343.921875 104.621094 346.207031 122.625 C 351.089844 162.394531 370.25 193.925781 401.71875 214.082031 C 431.554688 233.191406 454.789062 244.304688 470.9375 247.527344 C 436.335938 288.808594 374.273438 352.699219 291.167969 399.769531 C 288.714844 378.097656 278.328125 320.777344 237.394531 301.675781 C 183.089844 276.320312 140.207031 292.613281 98.148438 354.035156 C 50.519531 423.824219 173.355469 509.195312 178.601562 512.765625 L 179.195312 513.148438 L 179.789062 513.527344 C 196.15625 520.660156 213.640625 524.738281 231.363281 525.828125 C 270.429688 528.238281 304.460938 514.648438 329.667969 486.402344 C 347.589844 466.265625 353.621094 448.351562 347.621094 433.203125 C 342.859375 421.359375 331.296875 412.28125 313.144531 406.308594 C 365.769531 374.472656 409.527344 336.546875 442.902344 303.0625 C 441.394531 306.074219 439.882812 309.085938 438.429688 312.339844 C 409.597656 372.394531 393.234375 421.796875 389.324219 459.285156 C 385.933594 493.335938 385.773438 519.40625 386.863281 538.949219 C 366.699219 527.289062 338.933594 517.042969 314.875 527.808594 C 268.3125 548.867188 255.199219 588.625 272.433594 656.824219 C 276.082031 671.722656 285.410156 684.609375 298.421875 692.730469 C 340.28125 719.542969 414.308594 705.605469 418.207031 704.75 L 418.9375 704.589844 C 420.738281 704.066406 422.632812 703.398438 424.378906 702.632812 C 436.390625 696.296875 496.878906 661.335938 486.757812 583.664062 Z M 486.757812 583.664062 "/>
</g>
</g>
</g>
<g clip-path="url(#clip9)" clip-rule="nonzero">
<g clip-path="url(#clip10)" clip-rule="nonzero">
<g clip-path="url(#clip11)" clip-rule="nonzero">
<path style=" stroke:none;fill-rule:nonzero;fill:rgb(100%,98.429871%,91.758728%);fill-opacity:1;" d="M 246.113281 329.246094 L 249.105469 332.417969 L 242.757812 338.402344 L 239.765625 335.230469 C 224.679688 320.542969 202.441406 315.722656 182.570312 322.886719 C 148.070312 334.921875 139.730469 346.957031 139.636719 347.105469 L 137.109375 350.722656 L 129.835938 346.066406 L 132.308594 342.203125 C 133.257812 340.71875 142.507812 327.589844 179.726562 314.578125 C 218.992188 300.988281 245.0625 327.945312 246.113281 329.246094 Z M 310.300781 596.066406 C 316.550781 576.828125 335.183594 571.59375 336.160156 571.382812 L 340.394531 570.324219 L 338.136719 561.757812 L 333.898438 562.816406 C 332.925781 563.027344 309.664062 569.277344 302.035156 593.285156 C 294.539062 616.753906 300.949219 630.28125 301.203125 630.863281 L 303.085938 634.789062 L 310.9375 631.023438 L 309.058594 627.097656 C 309.058594 627.097656 303.914062 615.847656 310.300781 596.066406 Z M 367.847656 89.164062 L 477.097656 236.605469 L 484.238281 231.335938 L 374.988281 83.898438 Z M 689.761719 268.328125 L 502.625 223.222656 L 500.527344 231.722656 L 687.667969 276.828125 Z M 689.761719 268.328125 "/>
</g>
</g>
</g>
</g>
<clipPath id="clip12">
  <path d="M 0.015625 0 L 371 0 L 371 411 L 0.015625 411 Z M 0.015625 0 "/>
</clipPath>
<mask id="mask2">
  <g filter="url(#alpha)">
<rect x="0" y="0" width="595.5" height="842.249979" style="fill:rgb(0%,0%,0%);fill-opacity:0.498;stroke:none;"/>
  </g>
</mask>
<clipPath id="clip14">
  <path d="M 0.015625 0 L 330 0 L 330 374 L 0.015625 374 Z M 0.015625 0 "/>
</clipPath>
<clipPath id="clip15">
  <path d="M 104.058594 -410.195312 L 371.285156 -302.835938 L 84.710938 410.460938 L -182.515625 303.101562 Z M 104.058594 -410.195312 "/>
</clipPath>
<clipPath id="clip16">
  <path d="M 104.058594 -410.195312 L 371.285156 -302.835938 L 84.710938 410.460938 L -182.515625 303.101562 Z M 104.058594 -410.195312 "/>
</clipPath>
<clipPath id="clip17">
  <path d="M 0.015625 0 L 308 0 L 308 237 L 0.015625 237 Z M 0.015625 0 "/>
</clipPath>
<clipPath id="clip18">
  <path d="M 104.058594 -410.195312 L 371.285156 -302.835938 L 84.710938 410.460938 L -182.515625 303.101562 Z M 104.058594 -410.195312 "/>
</clipPath>
<clipPath id="clip19">
  <path d="M 104.058594 -410.195312 L 371.285156 -302.835938 L 84.710938 410.460938 L -182.515625 303.101562 Z M 104.058594 -410.195312 "/>
</clipPath>
<clipPath id="clip13">
  <rect x="0" y="0" width="371" height="411"/>
</clipPath>
<g id="surface11" clip-path="url(#clip13)">
<g clip-path="url(#clip14)" clip-rule="nonzero">
<g clip-path="url(#clip15)" clip-rule="nonzero">
<g clip-path="url(#clip16)" clip-rule="nonzero">
<path style=" stroke:none;fill-rule:nonzero;fill:rgb(23.139954%,67.059326%,35.289001%);fill-opacity:1;" d="M -53.261719 355.03125 C -54.078125 354.699219 -54.542969 353.882812 -54.347656 353.007812 C -50.058594 332.878906 -1.648438 103.6875 6.609375 -42.496094 C 14.382812 -176.835938 41.082031 -252.738281 47.574219 -269.292969 C 47.957031 -270.246094 48.914062 -270.65625 49.867188 -270.273438 C 50.273438 -270.109375 50.765625 -269.753906 50.875 -269.234375 C 54.238281 -260.28125 61.214844 -228.8125 62.542969 -121.855469 C 64.328125 20.601562 27.332031 150.488281 27.332031 150.488281 C 27.332031 150.488281 69.769531 25.957031 88.417969 -46.84375 C 107.066406 -119.644531 114.851562 -244.957031 121 -267.351562 C 125.0625 -282.1875 125.863281 -303.085938 125.832031 -315.613281 C 125.886719 -316.539062 126.679688 -317.328125 127.609375 -317.273438 C 128.261719 -317.328125 128.832031 -316.78125 129.214844 -316.152344 C 135.015625 -297.511719 144.53125 -254.253906 131.671875 -199.398438 C 114.492188 -125.53125 105.183594 -0.359375 95.078125 38.183594 C 89.558594 59.402344 84.644531 77.542969 81.292969 89.816406 C 81.046875 90.824219 81.644531 91.699219 82.519531 91.890625 C 83.253906 92.027344 84.15625 91.757812 84.429688 91.074219 C 99.640625 61.871094 132.808594 -2.5625 139.4375 -19.0625 C 148.09375 -40.609375 196.257812 -195.9375 209.605469 -233.492188 C 220.050781 -263.03125 232.878906 -315.046875 237.851562 -335.695312 C 238.097656 -336.707031 239.109375 -337.25 239.925781 -336.921875 C 240.664062 -336.785156 241.179688 -336.101562 241.234375 -335.445312 C 244.136719 -314.324219 249.382812 -259.640625 234.796875 -216.246094 C 216.207031 -161.316406 194.632812 -54.058594 171.789062 2.804688 C 148.945312 59.664062 123.023438 141.898438 100.242188 180.890625 C 77.457031 219.878906 189.875 42.0625 195.171875 24.550781 C 200.464844 7.039062 262.601562 -138.558594 263.871094 -146.445312 C 265.136719 -154.328125 285.445312 -196.214844 302.363281 -247.378906 C 312.839844 -278.964844 321.527344 -304.136719 326.601562 -318.726562 C 326.929688 -319.546875 327.800781 -320.144531 328.8125 -319.898438 C 329.628906 -319.570312 330.144531 -318.886719 329.953125 -318.015625 C 325.875 -279.902344 314.648438 -179.890625 305.714844 -157.664062 C 294.59375 -129.980469 267.171875 -75.117188 255.753906 -33.304688 C 244.332031 8.511719 210.058594 98.15625 191 127.875 C 171.9375 157.589844 122.5 249.539062 97.175781 290.515625 C 73.246094 329.207031 1.410156 368.601562 -6.617188 372.820312 C -7.050781 373.121094 -7.652344 373.039062 -8.0625 372.875 L -53.152344 354.757812 Z M -53.261719 355.03125 "/>
</g>
</g>
</g>
<g clip-path="url(#clip17)" clip-rule="nonzero">
<g clip-path="url(#clip18)" clip-rule="nonzero">
<g clip-path="url(#clip19)" clip-rule="nonzero">
<path style=" stroke:none;fill-rule:nonzero;fill:rgb(100%,100%,100%);fill-opacity:1;" d="M 50.152344 -188.28125 C 51.082031 -190.597656 32.210938 -202.300781 27.484375 -198.8125 C 25.929688 -197.695312 24.230469 -193.46875 24.230469 -193.46875 C 24.3125 -193.277344 49.109375 -185.691406 50.152344 -188.28125 Z M 53.660156 -169.449219 C 50.375 -161.269531 39.609375 -150.230469 39.609375 -150.230469 C 48.203125 -151.53125 63.835938 -156.96875 58.777344 -163.277344 Z M 31.769531 -171.277344 C 30.355469 -172.480469 24.382812 -171.394531 23.964844 -167.601562 C 23.523438 -164.929688 25.671875 -162.007812 27.527344 -161.894531 C 30.363281 -161.867188 33.675781 -169.71875 31.769531 -171.277344 Z M 31.574219 -153.460938 L 27.519531 -143.371094 C 27.519531 -143.371094 27.234375 -135.566406 29.441406 -136.738281 C 31.652344 -137.90625 31.574219 -153.460938 31.574219 -153.460938 Z M 74.390625 -216.710938 C 74.390625 -216.710938 59.9375 -202.402344 57.601562 -206.035156 C 55.261719 -209.667969 53.089844 -213.707031 59.777344 -217.355469 C 66.460938 -221.003906 74.390625 -216.710938 74.390625 -216.710938 Z M 72.917969 -187.054688 C 70.464844 -188.039062 66.507812 -185.667969 66.507812 -185.667969 C 70.082031 -187.085938 68.023438 -180.785156 69.902344 -179.554688 C 71.78125 -178.324219 76.042969 -181.839844 76.042969 -181.839844 Z M 56.730469 -102.652344 C 55.660156 -100.390625 74.261719 -88.007812 78.984375 -91.496094 C 80.539062 -92.609375 82.375 -96.785156 82.375 -96.785156 C 82.429688 -96.921875 57.90625 -105.1875 56.730469 -102.652344 Z M 60.332031 -60.03125 C 63.066406 -64.472656 71.363281 -69.375 71.363281 -69.375 C 64.984375 -70.039062 53.3125 -69.34375 56.792969 -64.617188 Z M 75.816406 -119.054688 C 77.179688 -117.71875 83.097656 -118.664062 83.839844 -122.484375 C 84.417969 -125.101562 82.269531 -128.023438 80.46875 -128.273438 C 77.554688 -128.496094 73.96875 -120.75 75.816406 -119.054688 Z M 76.667969 -136.925781 L 81.132812 -146.851562 C 81.132812 -146.851562 81.746094 -154.683594 79.398438 -153.566406 C 77.050781 -152.453125 76.667969 -136.925781 76.667969 -136.925781 Z M 48.839844 -126.726562 C 48.839844 -126.726562 63.859375 -140.488281 66.0625 -136.910156 C 68.265625 -133.335938 70.246094 -129.210938 63.613281 -125.699219 C 56.984375 -122.1875 48.839844 -126.726562 48.839844 -126.726562 Z M 33.964844 -104.671875 C 36.417969 -103.6875 40.457031 -105.863281 40.457031 -105.863281 C 36.9375 -104.585938 39.128906 -110.832031 37.25 -112.0625 C 35.371094 -113.292969 31.03125 -109.96875 31.03125 -109.96875 Z M 72.230469 -36.878906 C 73.164062 -39.195312 54.289062 -50.898438 49.566406 -47.410156 C 48.089844 -46.101562 46.445312 -42.011719 46.445312 -42.011719 C 46.445312 -42.011719 71.191406 -34.289062 72.230469 -36.878906 Z M 24.113281 -11.234375 C 20.824219 -3.050781 10.0625 7.984375 10.0625 7.984375 C 18.652344 6.6875 34.289062 1.25 29.171875 -4.925781 Z M 25.722656 -41.625 C 24.308594 -42.828125 18.335938 -41.746094 17.917969 -37.953125 C 17.476562 -35.277344 19.625 -32.355469 21.480469 -32.246094 C 24.398438 -32.023438 27.710938 -39.878906 25.722656 -41.625 Z M 71.066406 -12.324219 L 67.011719 -2.234375 C 67.011719 -2.234375 66.726562 5.570312 68.9375 4.398438 C 71.148438 3.230469 71.066406 -12.324219 71.066406 -12.324219 Z M 42.867188 -68.15625 C 42.867188 -68.15625 28.417969 -53.847656 26.078125 -57.480469 C 23.742188 -61.109375 21.566406 -65.152344 28.253906 -68.800781 C 34.941406 -72.449219 42.867188 -68.15625 42.867188 -68.15625 Z M 43.367188 -28.835938 C 40.917969 -29.820312 36.957031 -27.453125 36.957031 -27.453125 C 40.53125 -28.867188 38.476562 -22.566406 40.355469 -21.335938 C 42.234375 -20.105469 46.496094 -23.621094 46.496094 -23.621094 Z M 27.234375 55.429688 C 26.167969 57.691406 44.765625 70.074219 49.492188 66.585938 C 51.046875 65.46875 52.882812 61.296875 52.882812 61.296875 C 52.882812 61.296875 28.355469 53.027344 27.234375 55.429688 Z M 30.78125 98.1875 C 33.515625 93.742188 41.816406 88.84375 41.816406 88.84375 C 35.4375 88.179688 23.765625 88.875 27.246094 93.597656 Z M 46.132812 39.105469 C 47.492188 40.445312 53.414062 39.496094 54.15625 35.679688 C 54.734375 33.058594 52.585938 30.136719 50.785156 29.890625 C 47.867188 29.667969 44.28125 37.414062 46.132812 39.105469 Z M 46.984375 21.234375 L 51.445312 11.308594 C 51.445312 11.308594 52.0625 3.480469 49.714844 4.59375 C 47.367188 5.710938 46.984375 21.234375 46.984375 21.234375 Z M 19.152344 31.433594 C 19.152344 31.433594 34.175781 17.671875 36.378906 21.25 C 38.578125 24.828125 40.5625 28.949219 33.929688 32.460938 C 27.296875 35.972656 19.152344 31.433594 19.152344 31.433594 Z M 4.417969 53.546875 C 6.867188 54.53125 10.90625 52.351562 10.90625 52.351562 C 7.386719 53.628906 9.582031 47.386719 7.703125 46.15625 C 5.824219 44.925781 1.480469 48.25 1.480469 48.25 Z M 148.757812 131.015625 C 143.320312 123.289062 139.636719 108.03125 139.636719 108.03125 C 136.082031 115.3125 132.453125 130.640625 140.632812 130.761719 Z M 68.753906 104.097656 C 70.636719 103.746094 72.851562 98.621094 69.722656 95.777344 C 67.65625 93.839844 64 93.480469 62.988281 94.816406 C 61.1875 96.941406 66.21875 104.503906 68.753906 104.097656 Z M 74.308594 78.457031 L 67.808594 69.035156 C 67.808594 69.035156 61.191406 63.84375 60.996094 66.300781 C 60.800781 68.753906 74.308594 78.457031 74.308594 78.457031 Z M 43.808594 -224.085938 C 43.808594 -224.085938 39.074219 -244.203125 43.464844 -243.703125 C 47.855469 -243.207031 52.488281 -242.140625 52.226562 -234.800781 C 51.832031 -227.515625 43.808594 -224.085938 43.808594 -224.085938 Z M 12.5625 86.433594 C 14.828125 85.125 14.863281 80.707031 14.863281 80.707031 C 14.230469 84.253906 9.824219 78.679688 7.777344 79.441406 C 5.730469 80.203125 6.429688 85.554688 6.429688 85.554688 Z M 217.804688 -243.660156 C 219.5 -245.515625 204.859375 -261.847656 199.101562 -259.726562 C 197.246094 -259.046875 194.296875 -255.640625 194.296875 -255.640625 C 194.296875 -255.640625 215.867188 -241.589844 217.804688 -243.660156 Z M 205.132812 -218.027344 C 199.230469 -211.214844 185.257812 -204 185.257812 -204 C 194.117188 -202.816406 210.996094 -203.476562 208.09375 -210.820312 Z M 116.109375 -159.878906 C 115.1875 -161.519531 109.082031 -162.070312 107.191406 -158.554688 C 105.933594 -156.210938 107.128906 -152.878906 108.761719 -152.222656 C 111.789062 -151.480469 117.390625 -157.941406 116.109375 -159.878906 Z M 177.101562 -158.5 L 170 -150.265625 C 170 -150.265625 167.230469 -142.984375 169.824219 -143.527344 C 172.414062 -144.070312 177.101562 -158.5 177.101562 -158.5 Z M 250.453125 -263.484375 C 250.453125 -263.484375 231.839844 -254.175781 230.730469 -258.105469 C 229.617188 -262.035156 228.726562 -266.511719 236.363281 -268.195312 C 244 -269.878906 250.453125 -263.484375 250.453125 -263.484375 Z M 113.96875 -136.828125 C 111.789062 -138.496094 107.34375 -137.273438 107.34375 -137.273438 C 111.269531 -137.59375 107.226562 -132.25 108.667969 -130.722656 C 110.109375 -129.191406 115.484375 -131.152344 115.484375 -131.152344 Z M 196.933594 -161.777344 C 195.101562 -159.976562 209.25 -143.207031 215.085938 -145.136719 C 217.078125 -145.761719 220.03125 -149.171875 220.03125 -149.171875 C 220.03125 -149.171875 198.871094 -163.847656 196.933594 -161.777344 Z M 186.824219 -120.859375 C 190.890625 -124.292969 200.65625 -126.546875 200.65625 -126.546875 C 194.664062 -128.957031 183.050781 -131.5625 184.867188 -126.238281 Z M 114.175781 -86.542969 C 115.101562 -84.902344 121.152344 -84.214844 123.121094 -87.539062 C 124.378906 -89.886719 123.378906 -93.296875 121.6875 -93.816406 C 118.773438 -94.832031 112.816406 -88.671875 114.175781 -86.542969 Z M 113.0625 -102.667969 L 120.574219 -110.734375 C 120.574219 -110.734375 123.613281 -117.90625 121.023438 -117.363281 C 118.429688 -116.824219 113.0625 -102.667969 113.0625 -102.667969 Z M 196.757812 -186.550781 C 196.757812 -186.550781 215.753906 -195.230469 216.726562 -191.355469 C 217.703125 -187.480469 218.402344 -182.921875 210.738281 -181.570312 C 203.074219 -180.214844 196.757812 -186.550781 196.757812 -186.550781 Z M 180.394531 -169.84375 C 182.382812 -168.097656 187.046875 -169.074219 187.046875 -169.074219 C 183.175781 -168.886719 187.300781 -174.039062 185.914062 -175.703125 C 184.527344 -177.371094 179.207031 -175.550781 179.207031 -175.550781 Z M 106.765625 -46.441406 C 108.460938 -48.292969 93.824219 -64.628906 88.066406 -62.507812 C 86.210938 -61.828125 83.257812 -58.421875 83.257812 -58.421875 C 83.257812 -58.421875 104.882812 -44.507812 106.765625 -46.441406 Z M 127.394531 -304.53125 C 131.632812 -296.179688 133.210938 -280.816406 133.210938 -280.816406 C 137.859375 -287.65625 143.667969 -302.113281 135.460938 -303.347656 Z M 130.019531 -190.558594 C 129.09375 -192.199219 122.988281 -192.75 121.101562 -189.234375 C 119.839844 -186.886719 121.035156 -183.558594 122.671875 -182.902344 C 125.640625 -182.023438 131.242188 -188.484375 130.019531 -190.558594 Z M 106.910156 -93.261719 L 99.804688 -85.03125 C 99.804688 -85.03125 97.035156 -77.75 99.628906 -78.292969 C 102.21875 -78.832031 106.910156 -93.261719 106.910156 -93.261719 Z M 130.769531 -213.695312 C 130.769531 -213.695312 112.15625 -204.386719 111.046875 -208.316406 C 109.9375 -212.246094 109.042969 -216.722656 116.683594 -218.40625 C 124.320312 -220.089844 130.769531 -213.695312 130.769531 -213.695312 Z M 136.734375 -165.53125 C 134.554688 -167.199219 130.109375 -165.976562 130.109375 -165.976562 C 134.035156 -166.296875 129.992188 -160.957031 131.433594 -159.425781 C 132.875 -157.894531 138.058594 -159.773438 138.058594 -159.773438 Z M 117.574219 -22.144531 C 115.746094 -20.347656 129.890625 -3.578125 135.730469 -5.507812 C 137.722656 -6.132812 140.808594 -9.484375 140.808594 -9.484375 C 140.808594 -9.484375 119.597656 -24.023438 117.574219 -22.144531 Z M 107.464844 18.769531 C 111.535156 15.335938 121.300781 13.085938 121.300781 13.085938 C 115.304688 10.675781 103.695312 8.070312 105.648438 13.449219 Z M 141.34375 -32.074219 C 142.265625 -30.4375 148.316406 -29.746094 150.289062 -33.074219 C 151.546875 -35.417969 150.542969 -38.832031 148.855469 -39.351562 C 145.9375 -40.363281 140.117188 -34.152344 141.34375 -32.074219 Z M 41.417969 -81.089844 L 48.878906 -89.019531 C 48.878906 -89.019531 51.917969 -96.191406 49.328125 -95.648438 C 46.734375 -95.105469 41.417969 -81.089844 41.417969 -81.089844 Z M 112.339844 -272.570312 C 112.339844 -272.570312 131.332031 -281.253906 132.304688 -277.378906 C 133.28125 -273.503906 133.980469 -268.945312 126.316406 -267.589844 C 118.652344 -266.234375 112.339844 -272.570312 112.339844 -272.570312 Z M 95.96875 -30.191406 C 97.953125 -28.445312 102.617188 -29.421875 102.617188 -29.421875 C 98.746094 -29.234375 102.875 -34.386719 101.484375 -36.050781 C 100.097656 -37.71875 94.777344 -35.894531 94.777344 -35.894531 Z M 227.628906 -322.855469 C 224.988281 -323.761719 214.757812 -306.175781 219.277344 -301.667969 C 220.773438 -300.273438 225.515625 -298.683594 225.515625 -298.683594 C 225.378906 -298.738281 230.410156 -321.898438 227.628906 -322.855469 Z M 85.105469 48.429688 C 82.289062 39.695312 83.542969 24.363281 83.542969 24.363281 C 77.695312 30.25 69.355469 43.527344 77.203125 46.046875 Z M 142.582031 34.9375 C 144.515625 35.242188 148.261719 31.042969 146.25 27.382812 C 144.863281 24.925781 141.265625 23.640625 139.902344 24.675781 C 137.527344 26.253906 140.046875 34.554688 142.582031 34.9375 Z M 131.707031 -232.957031 L 128.398438 -243.632812 C 128.398438 -243.632812 123.695312 -250.429688 122.625 -248.167969 C 121.558594 -245.902344 131.707031 -232.957031 131.707031 -232.957031 Z M 223.105469 -278.90625 C 223.105469 -278.90625 225.023438 -299.039062 229.054688 -297.261719 C 233.089844 -295.484375 237.339844 -293.460938 234.734375 -286.585938 C 232.132812 -279.714844 223.105469 -278.90625 223.105469 -278.90625 Z M 93.507812 2.710938 C 96.097656 2.167969 97.46875 -2.03125 97.46875 -2.03125 C 95.691406 1.210938 93.25 -5.3125 91.011719 -5.257812 C 88.777344 -5.207031 87.757812 0.0859375 87.757812 0.0859375 Z M 184.449219 -106.292969 C 185.382812 -108.613281 166.507812 -120.3125 161.785156 -116.824219 C 160.226562 -115.707031 158.53125 -111.480469 158.53125 -111.480469 C 158.53125 -111.480469 183.464844 -103.839844 184.449219 -106.292969 Z M 166.964844 -87.980469 C 163.679688 -79.796875 152.914062 -68.761719 152.914062 -68.761719 C 161.507812 -70.058594 177.140625 -75.496094 172.027344 -81.671875 Z M 188.429688 -90.601562 C 187.015625 -91.800781 181.175781 -90.664062 180.570312 -86.789062 C 180.128906 -84.117188 182.277344 -81.195312 184.132812 -81.082031 C 187.101562 -80.996094 190.417969 -88.851562 188.429688 -90.601562 Z M 177.226562 -63.109375 L 173.171875 -53.019531 C 173.171875 -53.019531 172.886719 -45.214844 175.097656 -46.386719 C 177.308594 -47.558594 177.226562 -63.109375 177.226562 -63.109375 Z M 296.527344 -157.238281 C 296.527344 -157.238281 282.078125 -142.929688 279.738281 -146.5625 C 277.402344 -150.191406 275.226562 -154.234375 281.777344 -157.9375 C 288.328125 -161.640625 296.527344 -157.238281 296.527344 -157.238281 Z M 202.996094 -108.34375 C 200.542969 -109.332031 196.585938 -106.960938 196.585938 -106.960938 C 200.160156 -108.375 198.101562 -102.074219 199.980469 -100.84375 C 201.863281 -99.617188 206.121094 -103.128906 206.121094 -103.128906 Z M 252.789062 -140.128906 C 251.71875 -137.863281 270.320312 -125.480469 275.042969 -128.96875 C 276.601562 -130.085938 278.433594 -134.257812 278.433594 -134.257812 C 278.570312 -134.203125 253.964844 -142.664062 252.789062 -140.128906 Z M 167.742188 53.441406 C 170.476562 48.996094 178.828125 43.957031 178.828125 43.957031 C 172.449219 43.296875 160.777344 43.992188 164.261719 48.714844 Z M 290.265625 -178.28125 C 291.628906 -176.941406 297.546875 -177.890625 298.289062 -181.710938 C 298.730469 -184.382812 296.773438 -187.386719 294.917969 -187.5 C 292.003906 -187.71875 288.472656 -180.113281 290.265625 -178.28125 Z M 157.480469 -45.863281 L 161.945312 -55.789062 C 161.945312 -55.789062 162.558594 -63.617188 160.210938 -62.503906 C 157.863281 -61.386719 157.480469 -45.863281 157.480469 -45.863281 Z M 153.550781 -14.027344 C 153.550781 -14.027344 168.574219 -27.785156 170.773438 -24.210938 C 172.976562 -20.632812 174.960938 -16.511719 168.328125 -13 C 161.695312 -9.488281 153.550781 -14.027344 153.550781 -14.027344 Z M 244.988281 -108.894531 C 247.382812 -107.773438 251.476562 -110.089844 251.476562 -110.089844 C 247.957031 -108.808594 250.152344 -115.054688 248.273438 -116.285156 C 246.394531 -117.515625 242.050781 -114.191406 242.050781 -114.191406 Z M 211.179688 -7.027344 C 212.109375 -9.34375 193.238281 -21.046875 188.511719 -17.558594 C 186.957031 -16.441406 185.257812 -12.214844 185.257812 -12.214844 C 185.203125 -12.078125 210.003906 -4.492188 211.179688 -7.027344 Z M 217.222656 -46.089844 C 213.9375 -37.910156 203.035156 -26.925781 203.035156 -26.925781 C 211.628906 -28.226562 227.261719 -33.664062 222.144531 -39.835938 Z M 123.460938 53.386719 C 122.046875 52.183594 116.074219 53.269531 115.65625 57.0625 C 115.214844 59.734375 117.363281 62.65625 119.21875 62.769531 C 122 62.933594 125.3125 55.082031 123.460938 53.386719 Z M 116.804688 85.710938 C 116.804688 85.710938 102.351562 100.019531 100.015625 96.386719 C 97.675781 92.753906 95.503906 88.714844 102.054688 85.011719 C 108.605469 81.308594 116.804688 85.710938 116.804688 85.710938 Z M 240.695312 -74.195312 C 238.242188 -75.179688 234.285156 -72.808594 234.285156 -72.808594 C 237.859375 -74.226562 235.804688 -67.925781 237.683594 -66.695312 C 239.5625 -65.464844 243.820312 -68.980469 243.820312 -68.980469 Z M 227.636719 -29.871094 C 227.636719 -29.871094 242.65625 -43.632812 244.859375 -40.054688 C 247.0625 -36.480469 249.042969 -32.355469 242.414062 -28.84375 C 235.78125 -25.332031 227.636719 -29.871094 227.636719 -29.871094 Z M 222.460938 -4.394531 C 224.859375 -3.273438 228.953125 -5.585938 228.953125 -5.585938 C 225.378906 -4.171875 227.628906 -10.554688 225.75 -11.785156 C 223.867188 -13.015625 219.527344 -9.691406 219.527344 -9.691406 Z M 286.085938 -231.273438 C 287.578125 -229.089844 307.90625 -235.96875 307.234375 -241.78125 C 307.074219 -243.746094 304.246094 -247.730469 304.246094 -247.730469 C 304.382812 -247.675781 284.507812 -233.648438 286.085938 -231.273438 Z M 299.167969 -259.117188 C 299.167969 -259.117188 294.433594 -279.230469 298.824219 -278.734375 C 303.210938 -278.238281 307.847656 -277.167969 307.585938 -269.828125 C 307.328125 -262.488281 299.167969 -259.117188 299.167969 -259.117188 Z M 211.246094 -234.417969 C 215.480469 -226.066406 217.0625 -210.703125 217.0625 -210.703125 C 221.710938 -217.542969 227.519531 -232 219.3125 -233.234375 Z M 215.449219 13.058594 C 215.449219 13.058594 196.835938 22.371094 195.726562 18.4375 C 194.617188 14.507812 193.726562 10.03125 201.363281 8.351562 C 209 6.667969 215.449219 13.058594 215.449219 13.058594 Z M 254.25 -148.882812 L 261.761719 -156.953125 C 261.761719 -156.953125 264.800781 -164.125 262.210938 -163.582031 C 259.621094 -163.039062 254.25 -148.882812 254.25 -148.882812 Z M 270.515625 -201.578125 C 270.515625 -201.578125 289.507812 -210.261719 290.484375 -206.382812 C 291.457031 -202.507812 292.15625 -197.953125 284.492188 -196.597656 C 276.828125 -195.242188 270.515625 -201.578125 270.515625 -201.578125 Z M 274.945312 -163.375 L 271.636719 -174.046875 C 271.636719 -174.046875 266.878906 -180.710938 265.863281 -178.582031 C 264.851562 -176.457031 274.945312 -163.375 274.945312 -163.375 Z M 159.503906 70.402344 C 156.214844 78.582031 145.453125 89.621094 145.453125 89.621094 C 154.042969 88.320312 169.675781 82.882812 164.5625 76.710938 Z M 199.714844 44.746094 C 198.296875 43.542969 192.460938 44.683594 191.910156 48.421875 C 191.46875 51.09375 193.617188 54.015625 195.46875 54.128906 C 198.441406 54.214844 201.753906 46.359375 199.714844 44.746094 Z M 20.359375 101.285156 L 16.308594 111.375 C 16.308594 111.375 16.019531 119.179688 18.230469 118.007812 C 20.441406 116.839844 20.359375 101.285156 20.359375 101.285156 Z M 183.695312 22 C 181.242188 21.015625 177.285156 23.382812 177.285156 23.382812 C 180.859375 21.96875 178.804688 28.269531 180.683594 29.5 C 182.5625 30.730469 186.820312 27.214844 186.820312 27.214844 Z M 36.078125 182.667969 C 35.011719 184.929688 53.613281 197.3125 58.335938 193.828125 C 59.890625 192.710938 61.726562 188.539062 61.726562 188.539062 C 61.863281 188.59375 37.257812 180.132812 36.078125 182.667969 Z M 15.539062 201.496094 C 18.277344 197.054688 26.574219 192.152344 26.574219 192.152344 C 20.195312 191.488281 8.523438 192.183594 12.003906 196.910156 Z M 61.871094 154.703125 C 63.230469 156.042969 69.148438 155.09375 69.894531 151.277344 C 70.472656 148.65625 68.375 145.597656 66.523438 145.488281 C 63.605469 145.265625 60.019531 153.011719 61.871094 154.703125 Z M 43.964844 136.265625 L 48.425781 126.339844 C 48.425781 126.339844 49.039062 118.507812 46.695312 119.625 C 44.347656 120.742188 43.964844 136.265625 43.964844 136.265625 Z M 1.203125 139.515625 C 1.203125 139.515625 16.226562 125.753906 18.429688 129.332031 C 20.628906 132.910156 22.613281 137.03125 15.980469 140.542969 C 9.347656 144.054688 1.203125 139.515625 1.203125 139.515625 Z M -4.492188 182.046875 C -2.09375 183.167969 2 180.855469 2 180.855469 C -1.574219 182.269531 0.671875 175.886719 -1.207031 174.65625 C -3.085938 173.425781 -7.425781 176.75 -7.425781 176.75 Z M 32.847656 236.007812 C 27.40625 228.277344 23.726562 213.019531 23.726562 213.019531 C 20.25 220.492188 16.542969 235.632812 24.667969 235.886719 Z M 34.476562 165.394531 C 36.359375 165.042969 38.574219 159.914062 35.445312 157.074219 C 33.375 155.132812 29.722656 154.773438 28.710938 156.109375 C 27.046875 158.292969 31.9375 165.800781 34.476562 165.394531 Z M 83.882812 179.070312 L 77.386719 169.648438 C 77.386719 169.648438 70.769531 164.457031 70.574219 166.910156 C 70.378906 169.367188 83.882812 179.070312 83.882812 179.070312 Z M 3.710938 214.796875 C 5.976562 213.492188 6.011719 209.070312 6.011719 209.070312 C 5.378906 212.617188 0.96875 207.046875 -1.074219 207.808594 C -3.121094 208.570312 -2.558594 213.863281 -2.558594 213.863281 Z M 98.558594 147.273438 C 102.625 143.839844 112.390625 141.585938 112.390625 141.585938 C 106.398438 139.179688 94.789062 136.570312 96.605469 141.894531 Z M 188.652344 85.277344 C 185.96875 76.597656 187.085938 61.210938 187.085938 61.210938 C 181.375 67.152344 172.898438 80.375 180.800781 82.757812 Z M 133.730469 163.304688 C 135.664062 163.605469 139.40625 159.40625 137.394531 155.75 C 136.011719 153.292969 132.414062 152.003906 131.046875 153.039062 C 128.671875 154.621094 131.140625 163.054688 133.730469 163.304688 Z M 84.597656 131.210938 C 87.191406 130.667969 88.5625 126.46875 88.5625 126.46875 C 86.785156 129.714844 84.207031 123.136719 82.105469 123.242188 C 80.007812 123.347656 78.851562 128.585938 78.851562 128.585938 Z M 138.859375 189.910156 C 141.59375 185.46875 149.894531 180.566406 149.894531 180.566406 C 143.515625 179.902344 131.84375 180.597656 135.324219 185.324219 Z M 114.554688 181.886719 C 113.136719 180.6875 107.300781 181.824219 106.695312 185.699219 C 106.253906 188.371094 108.402344 191.292969 110.253906 191.40625 C 113.144531 191.300781 116.460938 183.445312 114.554688 181.886719 Z M 107.949219 214.078125 C 107.949219 214.078125 93.5 228.382812 91.160156 224.753906 C 88.824219 221.121094 86.648438 217.078125 93.199219 213.378906 C 99.75 209.675781 107.949219 214.078125 107.949219 214.078125 Z M 107.949219 214.078125 "/>
</g>
</g>
</g>
</g>
<mask id="mask3">
  <g filter="url(#alpha)">
<rect x="0" y="0" width="595.5" height="842.249979" style="fill:rgb(0%,0%,0%);fill-opacity:0.498;stroke:none;"/>
  </g>
</mask>
<clipPath id="clip21">
  <path d="M 0.421875 0.496094 L 229 0.496094 L 229 207.558594 L 0.421875 207.558594 Z M 0.421875 0.496094 "/>
</clipPath>
<clipPath id="clip22">
  <path d="M 97 0.496094 L 213 0.496094 L 213 65 L 97 65 Z M 97 0.496094 "/>
</clipPath>
<clipPath id="clip20">
  <rect x="0" y="0" width="230" height="208"/>
</clipPath>
<g id="surface14" clip-path="url(#clip20)">
<g clip-path="url(#clip21)" clip-rule="nonzero">
<path style=" stroke:none;fill-rule:nonzero;fill:rgb(56.858826%,4.708862%,0%);fill-opacity:1;" d="M 99.050781 0.496094 C 99.050781 0.496094 15.953125 5.507812 4.269531 62.300781 C -7.417969 119.097656 10.855469 179.230469 30.980469 186.65625 C 61.492188 197.882812 110.738281 221.734375 165.269531 195.75 C 219.804688 169.765625 229.914062 125.21875 228.800781 109.164062 C 227.6875 93.109375 213.402344 67.960938 212.105469 59.144531 C 212.105469 59.144531 196.523438 70.746094 158.871094 55.992188 C 121.21875 41.234375 100.351562 21.003906 99.050781 0.496094 Z M 99.050781 0.496094 "/>
</g>
<g clip-path="url(#clip22)" clip-rule="nonzero">
<path style=" stroke:none;fill-rule:nonzero;fill:rgb(56.858826%,4.708862%,0%);fill-opacity:1;" d="M 99.050781 0.496094 C 99.050781 0.496094 132.253906 0.496094 164.714844 16.734375 C 197.175781 32.976562 212.011719 59.144531 212.011719 59.144531 C 212.011719 59.144531 198.378906 75.386719 142.640625 48.753906 C 86.902344 22.117188 99.050781 0.496094 99.050781 0.496094 Z M 99.050781 0.496094 "/>
</g>
</g>
<mask id="mask4">
  <g filter="url(#alpha)">
<rect x="0" y="0" width="595.5" height="842.249979" style="fill:rgb(0%,0%,0%);fill-opacity:0.498;stroke:none;"/>
  </g>
</mask>
<clipPath id="clip24">
  <path d="M 0.371094 1 L 237 1 L 237 260.265625 L 0.371094 260.265625 Z M 0.371094 1 "/>
</clipPath>
<clipPath id="clip23">
  <rect x="0" y="0" width="238" height="261"/>
</clipPath>
<g id="surface17" clip-path="url(#clip23)">
<g clip-path="url(#clip24)" clip-rule="nonzero">
<path style=" stroke:none;fill-rule:nonzero;fill:rgb(56.858826%,4.708862%,0%);fill-opacity:1;" d="M 2.308594 260.265625 L 0.414062 257.425781 C 0.757812 257.253906 32.347656 236.585938 52.316406 211.960938 C 103.53125 148.757812 106.804688 144.453125 160.515625 73.074219 L 171.53125 58.433594 L 174.285156 60.5 L 163.269531 75.140625 C 109.472656 146.605469 106.289062 150.824219 54.988281 214.113281 C 34.671875 239.171875 2.566406 260.09375 2.308594 260.265625 Z M 145.882812 91.242188 C 147.429688 92.015625 149.324219 91.328125 150.097656 89.777344 C 150.445312 89.003906 150.53125 88.140625 150.1875 87.28125 C 146.742188 77.894531 139.855469 60.84375 132.023438 48.960938 C 120.660156 31.742188 105.425781 28.382812 97.25 31.3125 C 89.074219 34.238281 113.257812 62.308594 126.429688 76.257812 C 132.023438 82.371094 138.652344 87.367188 145.882812 91.242188 Z M 123.503906 119.570312 C 125.050781 120.34375 126.945312 119.742188 127.71875 118.191406 C 128.152344 117.417969 128.152344 116.46875 127.804688 115.609375 C 124.191406 106.308594 116.960938 89.347656 108.957031 77.636719 C 97.25 60.671875 82.015625 57.488281 73.835938 60.585938 C 65.660156 63.6875 90.363281 91.328125 103.792969 105.019531 C 109.472656 110.871094 116.1875 115.78125 123.503906 119.570312 Z M 103.1875 147.296875 C 104.738281 148.070312 106.632812 147.46875 107.40625 145.917969 C 107.835938 145.144531 107.835938 144.109375 107.492188 143.335938 C 103.878906 133.949219 96.648438 117.074219 88.640625 105.363281 C 76.9375 88.398438 61.699219 85.214844 53.523438 88.3125 C 45.347656 91.414062 70.050781 119.054688 83.476562 132.742188 C 89.246094 138.597656 95.871094 143.59375 103.1875 147.296875 Z M 78.570312 178.378906 C 80.121094 179.15625 82.015625 178.550781 82.789062 177.003906 C 83.21875 176.226562 83.21875 175.28125 82.875 174.417969 C 79.257812 165.035156 72.03125 148.15625 64.023438 136.445312 C 52.316406 119.398438 37.082031 116.296875 28.90625 119.398438 C 20.730469 122.496094 45.347656 150.136719 58.859375 163.828125 C 64.625 169.683594 71.253906 174.589844 78.570312 178.378906 Z M 167.917969 62.222656 C 169.464844 63 171.359375 62.308594 172.136719 60.757812 C 172.480469 59.984375 172.566406 59.125 172.222656 58.261719 C 168.691406 48.875 161.804688 31.828125 153.972656 19.945312 C 142.609375 2.722656 127.375 -0.71875 119.199219 2.292969 C 111.019531 5.308594 135.207031 33.292969 148.378906 47.242188 C 154.058594 53.269531 160.601562 58.347656 167.917969 62.222656 Z M 149.582031 94.253906 C 148.550781 92.875 148.722656 90.894531 150.097656 89.863281 C 150.789062 89.261719 151.734375 89.089844 152.683594 89.261719 C 162.410156 91.328125 179.96875 95.546875 192.707031 101.488281 C 211.214844 110.183594 216.894531 124.996094 215.34375 133.691406 C 213.796875 142.386719 182.722656 122.582031 167.140625 111.476562 C 160.429688 106.738281 154.488281 100.882812 149.582031 94.253906 Z M 127.375 124.132812 C 126.34375 122.753906 126.6875 120.773438 128.0625 119.742188 C 128.753906 119.226562 129.699219 119.054688 130.558594 119.226562 C 140.199219 121.464844 157.761719 125.941406 170.414062 132.140625 C 188.746094 141.183594 194.257812 156.078125 192.535156 164.6875 C 190.8125 173.300781 160.085938 152.980469 144.675781 141.613281 C 137.964844 136.789062 132.109375 130.847656 127.375 124.132812 Z M 107.234375 152.546875 C 106.203125 151.171875 106.546875 149.191406 107.921875 148.15625 C 108.613281 147.640625 109.558594 147.46875 110.417969 147.640625 C 120.058594 149.878906 137.617188 154.355469 150.273438 160.554688 C 168.605469 169.597656 174.113281 184.492188 172.394531 193.105469 C 170.671875 201.714844 139.941406 181.394531 124.535156 170.027344 C 117.820312 165.121094 111.96875 159.265625 107.234375 152.546875 Z M 82.53125 181.222656 C 81.496094 179.84375 81.84375 177.863281 83.21875 176.828125 C 83.90625 176.3125 84.855469 176.140625 85.714844 176.3125 C 95.355469 178.550781 112.914062 183.03125 125.566406 189.230469 C 143.902344 198.269531 149.410156 213.167969 147.691406 221.777344 C 145.96875 230.386719 115.238281 210.066406 99.832031 198.699219 C 93.203125 193.878906 87.351562 188.023438 82.53125 181.222656 Z M 170.757812 65.925781 C 169.726562 64.546875 169.984375 62.566406 171.359375 61.535156 C 172.046875 61.019531 172.996094 60.757812 173.855469 60.929688 C 183.496094 63 201.140625 67.21875 213.882812 73.160156 C 232.386719 81.855469 238.070312 96.664062 236.519531 105.363281 C 234.96875 114.058594 203.898438 94.167969 188.316406 83.148438 C 181.601562 78.410156 175.664062 72.554688 170.757812 65.925781 Z M 170.757812 65.925781 "/>
</g>
</g>
<clipPath id="clip25">
  <path d="M 6 499 L 386 499 L 386 841.5 L 6 841.5 Z M 6 499 "/>
</clipPath>
<mask id="mask5">
  <g filter="url(#alpha)">
<rect x="0" y="0" width="595.5" height="842.249979" style="fill:rgb(0%,0%,0%);fill-opacity:0.498;stroke:none;"/>
  </g>
</mask>
<clipPath id="clip27">
  <path d="M 1 0.234375 L 379.496094 0.234375 L 379.496094 342.5 L 1 342.5 Z M 1 0.234375 "/>
</clipPath>
<clipPath id="clip26">
  <rect x="0" y="0" width="380" height="343"/>
</clipPath>
<g id="surface20" clip-path="url(#clip26)">
<g clip-path="url(#clip27)" clip-rule="nonzero">
<path style=" stroke:none;fill-rule:nonzero;fill:rgb(23.139954%,67.059326%,35.289001%);fill-opacity:1;" d="M 323.125 51.390625 C 279.210938 30.734375 214.15625 -18.835938 150.722656 8.203125 C 87.292969 35.242188 12.851562 128.625 3.59375 177.945312 C -5.664062 227.265625 22.734375 337.800781 135.585938 369.097656 C 248.433594 400.390625 343.144531 350.820312 379.175781 163.050781 C 379.175781 163.050781 367.039062 72.042969 323.125 51.390625 Z M 213.90625 342.433594 C 183.128906 350.070312 142.464844 335.796875 98.550781 301.75 C 54.636719 267.699219 54.636719 242.414062 43.628906 209.367188 C 32.617188 176.320312 51.257812 142.269531 77.660156 106.09375 C 104.058594 69.914062 138.335938 50.636719 170.992188 45.628906 C 213.78125 38.996094 267.703125 52.265625 297.355469 63.15625 C 327.003906 74.046875 344.519531 120.363281 346.773438 151.15625 C 349.023438 181.953125 336.890625 209.367188 317.121094 256.683594 C 297.355469 304.003906 244.683594 334.796875 213.90625 342.433594 Z M 213.90625 342.433594 "/>
</g>
</g>
<mask id="mask6">
  <g filter="url(#alpha)">
<rect x="0" y="0" width="595.5" height="842.249979" style="fill:rgb(0%,0%,0%);fill-opacity:0.498;stroke:none;"/>
  </g>
</mask>
<clipPath id="clip29">
  <path d="M 0.121094 0.40625 L 175.609375 0.40625 L 175.609375 175.929688 L 0.121094 175.929688 Z M 0.121094 0.40625 "/>
</clipPath>
<clipPath id="clip28">
  <rect x="0" y="0" width="176" height="176"/>
</clipPath>
<g id="surface23" clip-path="url(#clip28)">
<g clip-path="url(#clip29)" clip-rule="nonzero">
<path style=" stroke:none;fill-rule:nonzero;fill:rgb(23.139954%,67.059326%,35.289001%);fill-opacity:1;" d="M 149.503906 24.285156 C 129.171875 14.714844 99.050781 -8.253906 69.679688 4.277344 C 40.308594 16.804688 5.839844 60.070312 1.554688 82.921875 C -2.734375 105.773438 10.417969 156.988281 62.667969 171.488281 C 114.921875 185.988281 158.773438 163.019531 175.457031 76.019531 C 175.457031 76.019531 169.839844 33.855469 149.503906 24.285156 Z M 98.933594 159.132812 C 84.683594 162.671875 65.855469 156.058594 45.523438 140.285156 C 25.1875 124.507812 25.1875 112.792969 20.089844 97.480469 C 14.992188 82.167969 23.625 66.394531 35.847656 49.632812 C 48.070312 32.871094 63.945312 23.9375 79.0625 21.617188 C 98.875 18.542969 123.84375 24.691406 137.570312 29.738281 C 151.300781 34.785156 159.410156 56.242188 160.453125 70.511719 C 161.496094 84.777344 155.878906 97.480469 146.726562 119.40625 C 137.570312 141.328125 113.183594 155.597656 98.933594 159.132812 Z M 98.933594 159.132812 "/>
</g>
</g>
</defs>
<g id="surface1">
<g clip-path="url(#clip1)" clip-rule="nonzero">
<use xlink:href="#surface5" transform="matrix(1,0,0,1,-0.000000000000000002,0)" mask="url(#mask0)"/>
</g>
<g clip-path="url(#clip4)" clip-rule="nonzero">
<use xlink:href="#surface8" transform="matrix(1,0,0,1,60,214)" mask="url(#mask1)"/>
</g>
<g clip-path="url(#clip12)" clip-rule="nonzero">
<use xlink:href="#surface11" transform="matrix(1,0,0,1,-0.000000000000000002,0)" mask="url(#mask2)"/>
</g>
<use xlink:href="#surface14" transform="matrix(1,0,0,1,260,20)" mask="url(#mask3)"/>
<use xlink:href="#surface17" transform="matrix(1,0,0,1,57,291)" mask="url(#mask4)"/>
<g clip-path="url(#clip25)" clip-rule="nonzero">
<use xlink:href="#surface20" transform="matrix(1,0,0,1,6,499)" mask="url(#mask5)"/>
</g>
<use xlink:href="#surface23" transform="matrix(1,0,0,1,285,172)" mask="url(#mask6)"/>
</g>
</svg>
